<svg width="3248" height="3248" xmlns="http://www.w3.org/2000/svg" xmlns:xlink="http://www.w3.org/1999/xlink" xml:space="preserve" overflow="hidden"><defs><clipPath id="clip0"><rect x="0" y="0" width="3248" height="3248"/></clipPath></defs><g clip-path="url(#clip0)"><path d="M0 1624C-2.06757e-13 727.09 727.09-2.06757e-13 1624-4.13514e-13 2520.91-8.27027e-13 3248 727.09 3248 1624 3248 2520.91 2520.91 3248 1624 3248 727.09 3248-1.03378e-12 2520.91 0 1624Z" fill="#FFFFFF" fill-rule="evenodd"/><path d="M2493.97 580.143 2537.63 617.962C2811.16 866.564 2982.88 1225.19 2982.88 1623.93 2982.88 2374.5 2374.43 2982.95 1623.86 2982.95 1225.12 2982.95 866.493 2811.23 617.89 2537.71L580.072 2494.05 585.723 2498.94C820.642 2692.81 1121.81 2809.28 1450.19 2809.28 2200.75 2809.28 2809.2 2200.82 2809.2 1450.26 2809.2 1121.88 2692.74 820.713 2498.87 585.795ZM1015.19 488.126C1219.9 485.062 1427.24 546.296 1605.01 676.771 2038.43 994.88 2131.91 1604.11 1813.8 2037.54 1605.04 2321.97 1270.91 2460 943.362 2431.38L919.828 2428.75 949.917 2415.46C1091.94 2348.6 1219.78 2246.35 1319.19 2110.91 1637.29 1677.49 1543.82 1068.25 1110.4 750.146 974.952 650.737 822.338 591.522 666.806 570.314L643.606 567.721 656.534 562.012C770.496 514.948 892.368 489.963 1015.19 488.126ZM1684.61 329.995 1731.03 341.236C2084.4 435.845 2390.34 690.076 2536.66 1055.86 2783.1 1671.91 2483.47 2371.1 1867.42 2617.54 1501.63 2763.86 1106.54 2717.68 794.315 2527.05L763.694 2507.33 773.456 2509.69C999.599 2558.75 1242.31 2543.13 1473.33 2450.71 2089.38 2204.27 2389.02 1505.08 2142.58 889.029 2050.16 658.009 1894.08 471.485 1702.59 341.569Z" stroke="#1363DF" stroke-width="4.58333" stroke-miterlimit="8" fill="#1363DF" fill-rule="evenodd"/></g></svg>